<svg aria-hidden="true" style="position:absolute;width:0;height:0" xmlns="http://www.w3.org/2000/svg" overflow="hidden">
  <defs>
    
    <symbol id="moon" viewBox="0 0 32 32">
<path d="M31.626 21.141c-0.118-0.097-0.286-0.106-0.415-0.022-5.782 3.803-13.535 3.007-18.437-1.894s-5.698-12.655-1.894-18.436c0.084-0.128 0.075-0.296-0.022-0.414s-0.259-0.161-0.402-0.103c-2.040 0.822-3.868 2.034-5.435 3.6-6.37 6.37-6.37 16.735 0 23.106 3.185 3.185 7.369 4.777 11.553 4.777s8.368-1.593 11.553-4.777c1.567-1.567 2.778-3.396 3.6-5.435 0.057-0.142 0.015-0.305-0.103-0.402z"></path>
<path d="M27.292 14.309c-1.713-0.571-3.077-1.934-3.648-3.648-0.095-0.284-0.347-0.467-0.645-0.467s-0.55 0.183-0.644 0.467c-0.571 1.713-1.935 3.076-3.648 3.647-0.284 0.095-0.467 0.348-0.467 0.645s0.183 0.55 0.467 0.645c1.713 0.571 3.077 1.934 3.647 3.648h0c0.095 0.284 0.347 0.467 0.644 0.467s0.55-0.183 0.645-0.467c0.571-1.713 1.935-3.077 3.648-3.648 0.284-0.095 0.467-0.347 0.467-0.645s-0.183-0.55-0.467-0.645z"></path>
<path d="M28.826 4.299c-0.909-0.303-1.633-1.026-1.936-1.936-0.073-0.219-0.276-0.366-0.506-0.366s-0.434 0.147-0.507 0.367c-0.302 0.909-1.026 1.633-1.935 1.935-0.219 0.073-0.367 0.276-0.367 0.506s0.147 0.433 0.366 0.506c0.909 0.303 1.633 1.027 1.936 1.936 0.073 0.219 0.276 0.366 0.506 0.367 0 0 0 0 0.001 0 0.23 0 0.433-0.147 0.506-0.366 0.303-0.909 1.027-1.633 1.936-1.936 0.219-0.073 0.366-0.277 0.366-0.506s-0.147-0.433-0.366-0.507z"></path>
<path d="M18.547 6.789c-1.132-0.377-2.032-1.277-2.409-2.409-0.078-0.236-0.297-0.394-0.545-0.394s-0.466 0.159-0.545 0.394c-0.377 1.132-1.277 2.032-2.409 2.409-0.236 0.078-0.394 0.297-0.394 0.545s0.159 0.466 0.394 0.545c1.132 0.377 2.032 1.278 2.409 2.409 0.078 0.236 0.297 0.394 0.545 0.394s0.466-0.159 0.545-0.394c0.377-1.132 1.277-2.032 2.409-2.409 0.236-0.078 0.395-0.297 0.395-0.545s-0.159-0.466-0.394-0.545z"></path>
</symbol>
    <symbol id="sun" viewBox="0 0 32 32">
<path d="M16 25.168c-5.055 0-9.168-4.113-9.168-9.168s4.113-9.168 9.168-9.168c5.055 0 9.168 4.113 9.168 9.168 0 1.654-0.445 3.275-1.288 4.689-1.647 2.763-4.667 4.48-7.88 4.48z"></path>
<path d="M16 5.449c-0.386 0-0.7-0.314-0.7-0.7v-3.804c0-0.387 0.314-0.7 0.7-0.7s0.7 0.314 0.7 0.7v3.804c0 0.386-0.314 0.7-0.7 0.7z"></path>
<path d="M16 31.755c-0.386 0-0.7-0.314-0.7-0.7v-3.803c0-0.387 0.314-0.7 0.7-0.7s0.7 0.314 0.7 0.7v3.803c0 0.387-0.314 0.7-0.7 0.7z"></path>
<path d="M4.749 16.7h-3.804c-0.387 0-0.7-0.314-0.7-0.7s0.314-0.7 0.7-0.7h3.804c0.386 0 0.7 0.314 0.7 0.7s-0.314 0.7-0.7 0.7z"></path>
<path d="M31.054 16.7h-3.803c-0.387 0-0.7-0.314-0.7-0.7s0.314-0.7 0.7-0.7h3.803c0.387 0 0.7 0.314 0.7 0.7s-0.314 0.7-0.7 0.7z"></path>
<path d="M23.956 8.745c-0.179 0-0.358-0.068-0.495-0.205-0.273-0.273-0.273-0.717 0-0.99l2.689-2.689c0.273-0.273 0.717-0.273 0.99 0s0.273 0.717 0 0.99l-2.689 2.689c-0.137 0.137-0.316 0.205-0.495 0.205z"></path>
<path d="M5.355 27.345c-0.179 0-0.359-0.068-0.495-0.205-0.273-0.273-0.273-0.717 0-0.99l2.689-2.689c0.273-0.273 0.717-0.273 0.99 0s0.273 0.717 0 0.99l-2.689 2.689c-0.137 0.137-0.316 0.205-0.495 0.205z"></path>
<path d="M8.044 8.745c-0.179 0-0.359-0.068-0.495-0.205l-2.689-2.689c-0.273-0.273-0.273-0.717 0-0.99s0.717-0.273 0.99 0l2.689 2.689c0.273 0.273 0.273 0.717 0 0.99-0.137 0.137-0.316 0.205-0.495 0.205z"></path>
<path d="M26.645 27.345c-0.179 0-0.358-0.068-0.495-0.205l-2.689-2.689c-0.273-0.273-0.273-0.717 0-0.99s0.717-0.273 0.99 0l2.689 2.689c0.273 0.273 0.273 0.717 0 0.99-0.137 0.137-0.316 0.205-0.495 0.205z"></path>
<path d="M11.695 6.306c-0.275 0-0.536-0.163-0.647-0.432l-1.455-3.514c-0.148-0.357 0.022-0.767 0.379-0.915s0.767 0.022 0.915 0.379l1.456 3.514c0.148 0.357-0.022 0.767-0.379 0.915-0.088 0.036-0.179 0.054-0.268 0.054z"></path>
<path d="M21.761 30.609c-0.275 0-0.535-0.163-0.647-0.432l-1.455-3.514c-0.148-0.357 0.022-0.767 0.379-0.915 0.358-0.148 0.767 0.022 0.915 0.379l1.455 3.514c0.148 0.357-0.022 0.767-0.379 0.915-0.088 0.036-0.178 0.054-0.267 0.054z"></path>
<path d="M2.092 22.461c-0.275 0-0.536-0.163-0.647-0.432-0.148-0.357 0.022-0.767 0.379-0.915l3.514-1.455c0.357-0.148 0.767 0.022 0.915 0.379s-0.022 0.767-0.379 0.915l-3.514 1.455c-0.088 0.036-0.178 0.054-0.267 0.054z"></path>
<path d="M26.395 12.395c-0.275 0-0.535-0.163-0.647-0.432-0.148-0.357 0.022-0.767 0.379-0.915l3.514-1.456c0.357-0.148 0.766 0.022 0.915 0.379s-0.022 0.767-0.379 0.915l-3.513 1.456c-0.088 0.036-0.179 0.054-0.268 0.054z"></path>
<path d="M20.305 6.306c-0.089 0-0.18-0.017-0.268-0.054-0.357-0.148-0.527-0.557-0.379-0.915l1.455-3.514c0.148-0.357 0.556-0.527 0.915-0.379 0.357 0.148 0.527 0.557 0.379 0.915l-1.455 3.514c-0.112 0.27-0.372 0.433-0.647 0.433z"></path>
<path d="M10.238 30.609c-0.089 0-0.18-0.017-0.268-0.054-0.357-0.148-0.527-0.558-0.379-0.915l1.456-3.514c0.148-0.357 0.557-0.527 0.915-0.379s0.527 0.558 0.379 0.915l-1.456 3.514c-0.111 0.269-0.372 0.432-0.647 0.432z"></path>
<path d="M5.605 12.395c-0.089 0-0.18-0.017-0.268-0.054l-3.514-1.456c-0.357-0.148-0.527-0.558-0.379-0.915s0.557-0.527 0.915-0.379l3.514 1.456c0.357 0.148 0.527 0.558 0.379 0.915-0.111 0.27-0.372 0.432-0.647 0.432z"></path>
<path d="M29.908 22.461c-0.089 0-0.18-0.017-0.268-0.054l-3.514-1.455c-0.357-0.148-0.527-0.558-0.379-0.915s0.556-0.527 0.915-0.379l3.514 1.455c0.357 0.148 0.527 0.558 0.379 0.915-0.112 0.269-0.372 0.432-0.647 0.432z"></path>
</symbol>
    <symbol id="icon-film" viewBox="0 0 32 32">
      <path   stroke-linejoin="round" stroke-linecap="round" stroke-miterlimit="4" stroke-width="2.6667" d="M26.427 2.667h-20.853c-1.605 0-2.907 1.301-2.907 2.907v20.853c0 1.605 1.301 2.907 2.907 2.907h20.853c1.605 0 2.907-1.301 2.907-2.907v-20.853c0-1.605-1.301-2.907-2.907-2.907z"></path>
      <path fill="none"   stroke-linejoin="round" stroke-linecap="round" stroke-miterlimit="4" stroke-width="2.6667" d="M9.333 2.667v26.667"></path>
      <path fill="none"   stroke-linejoin="round" stroke-linecap="round" stroke-miterlimit="4" stroke-width="2.6667" d="M22.667 2.667v26.667"></path>
      <path fill="none"   stroke-linejoin="round" stroke-linecap="round" stroke-miterlimit="4" stroke-width="2.6667" d="M2.667 16h26.667"></path>
      <path fill="none"   stroke-linejoin="round" stroke-linecap="round" stroke-miterlimit="4" stroke-width="2.6667" d="M2.667 9.333h6.667"></path>
      <path fill="none"   stroke-linejoin="round" stroke-linecap="round" stroke-miterlimit="4" stroke-width="2.6667" d="M2.667 22.667h6.667"></path>
      <path fill="none"   stroke-linejoin="round" stroke-linecap="round" stroke-miterlimit="4" stroke-width="2.6667" d="M22.667 22.667h6.667"></path>
      <path fill="none"   stroke-linejoin="round" stroke-linecap="round" stroke-miterlimit="4" stroke-width="2.6667" d="M22.667 9.333h6.667"></path>
    </symbol>
    <symbol id="icon-search" viewBox="0 0 32 32">
      <path fill="none" style="stroke: var(--color1)" stroke-linejoin="round" stroke-linecap="round" stroke-miterlimit="4" stroke-width="2.6667" d="M14.667 25.333c5.891 0 10.667-4.776 10.667-10.667s-4.776-10.667-10.667-10.667c-5.891 0-10.667 4.776-10.667 10.667s4.776 10.667 10.667 10.667z"></path>
      <path fill="none" style="stroke: var(--color1)" stroke-linejoin="round" stroke-linecap="round" stroke-miterlimit="4" stroke-width="2.6667" d="M28 28.001l-5.8-5.8"></path>
    </symbol>
    <symbol id="icon-heart" viewBox="0 0 34 32">
      <path d="M17.231 31.705l-2.412-2.412c-8.96-7.926-14.818-13.268-14.818-19.815 0-5.342 4.135-9.477 9.477-9.477 2.929 0 5.858 1.378 7.754 3.618 1.895-2.24 4.825-3.618 7.754-3.618 5.342 0 9.477 4.135 9.477 9.477 0 6.548-5.858 11.889-14.818 19.815l-2.412 2.412z"></path>
    </symbol>
    <symbol id="icon-up-arrow" viewBox="0 0 32 32">
      <path d="M17.028 10.123c-0.273-0.273-0.643-0.426-1.029-0.426s-0.756 0.153-1.029 0.426l-7.757 7.758c-0.568 0.568-0.568 1.489 0 2.057s1.489 0.568 2.057-0l6.729-6.729 6.729 6.729c0.284 0.284 0.656 0.426 1.028 0.426s0.745-0.142 1.028-0.426c0.568-0.568 0.568-1.489 0-2.057l-7.758-7.758z"></path>
      <path d="M16 0c-8.822 0-16 7.178-16 16s7.178 16 16 16 16-7.178 16-16-7.178-16-16-16zM16 29.091c-7.218 0-13.091-5.873-13.091-13.091s5.873-13.091 13.091-13.091 13.091 5.873 13.091 13.091-5.873 13.091-13.091 13.091z"></path>
    </symbol>
    <symbol id="modal-close" viewBox="0 0 32 32">
      <path d="M26.667 7.303l-1.97-1.97-7.808 7.808-7.808-7.808-1.97 1.97 7.808 7.808-7.808 7.808 1.97 1.97 7.808-7.808 7.808 7.808 1.97-1.97-7.808-7.808 7.808-7.808z"></path>
    </symbol>
    <symbol id="icon-rocket" viewBox="0 0 32 32">
      <path d="M16 7.014c-1.916 0-3.476 1.559-3.476 3.476s1.559 3.476 3.476 3.476 3.476-1.559 3.476-3.476-1.559-3.476-3.476-3.476zM16 13.025c-1.398 0-2.536-1.138-2.536-2.536s1.138-2.536 2.536-2.536 2.536 1.138 2.536 2.536-1.138 2.536-2.536 2.536z"></path>
      <path d="M16 9.018c-0.259 0-0.47 0.21-0.47 0.47s0.21 0.47 0.47 0.47c0.294 0 0.532 0.239 0.532 0.532 0 0.259 0.21 0.47 0.47 0.47s0.47-0.21 0.47-0.47c0-0.811-0.66-1.472-1.472-1.472z"></path>
      <path d="M23.785 23.78l-2.98-4.658c0.413-4.008 0.675-7.444 0.675-9.133 0-3.5-1.418-6.008-2.608-7.495-1.29-1.613-2.576-2.394-2.63-2.426-0.149-0.089-0.335-0.089-0.483 0-0.054 0.032-1.34 0.813-2.63 2.426-1.19 1.487-2.608 3.995-2.608 7.495 0 1.689 0.261 5.125 0.675 9.133l-2.981 4.659c-0.458 0.72-0.7 1.551-0.7 2.404v5.346c0 0.198 0.125 0.376 0.312 0.442 0.052 0.018 0.105 0.027 0.158 0.027 0.138 0 0.273-0.061 0.364-0.172l3.828-4.678c0.266 0.787 1.011 1.344 1.867 1.344h1.488v3.037c0 0.259 0.21 0.47 0.47 0.47s0.47-0.21 0.47-0.47v-3.037h1.488c0.856 0 1.601-0.557 1.867-1.344l3.828 4.678c0.091 0.111 0.225 0.172 0.364 0.172 0.053 0 0.106-0.009 0.158-0.027 0.187-0.067 0.312-0.244 0.312-0.442v-5.346c0-0.853-0.242-1.684-0.701-2.405zM8.454 26.185c0-0.674 0.191-1.331 0.553-1.899l2.347-3.669c0.187 1.718 0.397 3.51 0.624 5.291l-3.523 4.306v-4.030zM17.957 27.554h-1.488v-8.047c0-0.259-0.21-0.47-0.47-0.47s-0.47 0.21-0.47 0.47v8.047h-1.488c-0.516 0-0.956-0.387-1.023-0.901-0.328-2.514-0.626-5.073-0.871-7.438-0.001-0.018-0.003-0.035-0.005-0.052-0.418-4.032-0.683-7.49-0.683-9.174 0-1.819 0.399-3.507 1.188-5.041h3.853c0.259 0 0.47-0.21 0.47-0.47s-0.21-0.47-0.47-0.47h-3.308c0.198-0.306 0.414-0.606 0.646-0.898 0.869-1.094 1.749-1.782 2.161-2.075 0.512 0.364 1.747 1.343 2.799 2.973h-0.294c-0.259 0-0.47 0.21-0.47 0.47s0.21 0.47 0.47 0.47h0.837c0.687 1.338 1.198 3.013 1.198 5.041 0 1.684-0.265 5.142-0.683 9.174-0.003 0.017-0.005 0.034-0.005 0.052-0.246 2.365-0.544 4.925-0.871 7.439-0.067 0.513-0.506 0.901-1.022 0.901zM23.546 30.215l-3.523-4.306c0.227-1.782 0.437-3.573 0.624-5.291l2.346 3.668c0.362 0.569 0.553 1.226 0.553 1.9v4.030z"></path>
    </symbol>
     <symbol id="icon-arrow-right" viewBox="0 0 32 32">
      <path d="M19.414 27.414l10-10c0.781-0.781 0.781-2.047 0-2.828l-10-10c-0.781-0.781-2.047-0.781-2.828 0s-0.781 2.047 0 2.828l6.586 6.586h-19.172c-1.105 0-2 0.895-2 2s0.895 2 2 2h19.172l-6.586 6.586c-0.39 0.39-0.586 0.902-0.586 1.414s0.195 1.024 0.586 1.414c0.781 0.781 2.047 0.781 2.828 0z"></path>
     </symbol>
     <symbol id="icon-arrow-left" viewBox="0 0 32 32">
      <path d="M12.586 27.414l-10-10c-0.781-0.781-0.781-2.047 0-2.828l10-10c0.781-0.781 2.047-0.781 2.828 0s0.781 2.047 0 2.828l-6.586 6.586h19.172c1.105 0 2 0.895 2 2s-0.895 2-2 2h-19.172l6.586 6.586c0.39 0.39 0.586 0.902 0.586 1.414s-0.195 1.024-0.586 1.414c-0.781 0.781-2.047 0.781-2.828 0z"></path>
     <symbol id="icon-equalizer" viewBox="0 0 32 32">
       <path d="M14 4v-0.5c0-0.825-0.675-1.5-1.5-1.5h-5c-0.825 0-1.5 0.675-1.5 1.5v0.5h-6v4h6v0.5c0 0.825 0.675 1.5 1.5 1.5h5c0.825 0 1.5-0.675 1.5-1.5v-0.5h18v-4h-18zM8 8v-4h4v4h-4zM26 13.5c0-0.825-0.675-1.5-1.5-1.5h-5c-0.825 0-1.5 0.675-1.5 1.5v0.5h-18v4h18v0.5c0 0.825 0.675 1.5 1.5 1.5h5c0.825 0 1.5-0.675 1.5-1.5v-0.5h6v-4h-6v-0.5zM20 18v-4h4v4h-4zM14 23.5c0-0.825-0.675-1.5-1.5-1.5h-5c-0.825 0-1.5 0.675-1.5 1.5v0.5h-6v4h6v0.5c0 0.825 0.675 1.5 1.5 1.5h5c0.825 0 1.5-0.675 1.5-1.5v-0.5h18v-4h-18v-0.5zM8 28v-4h4v4h-4z"></path>
    </symbol>
    <symbol id="icon-github" viewBox="0 0 32 32">
      <path d="M16 0.395c-8.836 0-16 7.163-16 16 0 7.069 4.585 13.067 10.942 15.182 0.8 0.148 1.094-0.347 1.094-0.77 0-0.381-0.015-1.642-0.022-2.979-4.452 0.968-5.391-1.888-5.391-1.888-0.728-1.849-1.776-2.341-1.776-2.341-1.452-0.993 0.11-0.973 0.11-0.973 1.606 0.113 2.452 1.649 2.452 1.649 1.427 2.446 3.743 1.739 4.656 1.33 0.143-1.034 0.558-1.74 1.016-2.14-3.554-0.404-7.29-1.777-7.29-7.907 0-1.747 0.625-3.174 1.649-4.295-0.166-0.403-0.714-2.030 0.155-4.234 0 0 1.344-0.43 4.401 1.64 1.276-0.355 2.645-0.532 4.005-0.539 1.359 0.006 2.729 0.184 4.008 0.539 3.054-2.070 4.395-1.64 4.395-1.64 0.871 2.204 0.323 3.831 0.157 4.234 1.026 1.12 1.647 2.548 1.647 4.295 0 6.145-3.743 7.498-7.306 7.895 0.574 0.497 1.085 1.47 1.085 2.963 0 2.141-0.019 3.864-0.019 4.391 0 0.426 0.288 0.925 1.099 0.768 6.354-2.118 10.933-8.113 10.933-15.18 0-8.837-7.164-16-16-16z"></path>
    <symbol id="icon-youtube" viewBox="0 0 32 32">
      <path d="M31.681 9.6c0 0-0.313-2.206-1.275-3.175-1.219-1.275-2.581-1.281-3.206-1.356-4.475-0.325-11.194-0.325-11.194-0.325h-0.012c0 0-6.719 0-11.194 0.325-0.625 0.075-1.987 0.081-3.206 1.356-0.963 0.969-1.269 3.175-1.269 3.175s-0.319 2.588-0.319 5.181v2.425c0 2.587 0.319 5.181 0.319 5.181s0.313 2.206 1.269 3.175c1.219 1.275 2.819 1.231 3.531 1.369 2.563 0.244 10.881 0.319 10.881 0.319s6.725-0.012 11.2-0.331c0.625-0.075 1.988-0.081 3.206-1.356 0.962-0.969 1.275-3.175 1.275-3.175s0.319-2.587 0.319-5.181v-2.425c-0.006-2.588-0.325-5.181-0.325-5.181zM12.694 20.15v-8.994l8.644 4.513-8.644 4.481z"></path>
      <path d="M26.667 7.303l-1.97-1.97-7.808 7.808-7.808-7.808-1.97 1.97 7.808 7.808-7.808 7.808 1.97 1.97 7.808-7.808 7.808 7.808 1.97-1.97-7.808-7.808 7.808-7.808z"></path>
    </symbol>
  </defs>
</svg>

