<svg aria-hidden="true" style="position:absolute;width:0;height:0" xmlns="http://www.w3.org/2000/svg" overflow="hidden">
  <defs>
    <symbol id="moon" viewBox="0 0 32 32">
      <path fill="currentColor" d="M17.701 32a15.97 15.97 0 0012.429-5.925c.442-.544-.04-1.339-.723-1.209-7.763 1.478-14.891-4.474-14.891-12.31 0-4.514 2.416-8.665 6.344-10.9.605-.345.453-1.262-.235-1.389-.879-.17-1.89-.267-2.923-.268-8.832 0-16 7.157-16 16 0 8.832 7.157 16 16 16z"/>
    </symbol>
    <symbol id="sun" viewBox="0 0 32 32">
<path d="M16 25.168c-5.055 0-9.168-4.113-9.168-9.168s4.113-9.168 9.168-9.168c5.055 0 9.168 4.113 9.168 9.168 0 1.654-0.445 3.275-1.288 4.689-1.647 2.763-4.667 4.48-7.88 4.48z"></path>
<path d="M16 5.449c-0.386 0-0.7-0.314-0.7-0.7v-3.804c0-0.387 0.314-0.7 0.7-0.7s0.7 0.314 0.7 0.7v3.804c0 0.386-0.314 0.7-0.7 0.7z"></path>
<path d="M16 31.755c-0.386 0-0.7-0.314-0.7-0.7v-3.803c0-0.387 0.314-0.7 0.7-0.7s0.7 0.314 0.7 0.7v3.803c0 0.387-0.314 0.7-0.7 0.7z"></path>
<path d="M4.749 16.7h-3.804c-0.387 0-0.7-0.314-0.7-0.7s0.314-0.7 0.7-0.7h3.804c0.386 0 0.7 0.314 0.7 0.7s-0.314 0.7-0.7 0.7z"></path>
<path d="M31.054 16.7h-3.803c-0.387 0-0.7-0.314-0.7-0.7s0.314-0.7 0.7-0.7h3.803c0.387 0 0.7 0.314 0.7 0.7s-0.314 0.7-0.7 0.7z"></path>
<path d="M23.956 8.745c-0.179 0-0.358-0.068-0.495-0.205-0.273-0.273-0.273-0.717 0-0.99l2.689-2.689c0.273-0.273 0.717-0.273 0.99 0s0.273 0.717 0 0.99l-2.689 2.689c-0.137 0.137-0.316 0.205-0.495 0.205z"></path>
<path d="M5.355 27.345c-0.179 0-0.359-0.068-0.495-0.205-0.273-0.273-0.273-0.717 0-0.99l2.689-2.689c0.273-0.273 0.717-0.273 0.99 0s0.273 0.717 0 0.99l-2.689 2.689c-0.137 0.137-0.316 0.205-0.495 0.205z"></path>
<path d="M8.044 8.745c-0.179 0-0.359-0.068-0.495-0.205l-2.689-2.689c-0.273-0.273-0.273-0.717 0-0.99s0.717-0.273 0.99 0l2.689 2.689c0.273 0.273 0.273 0.717 0 0.99-0.137 0.137-0.316 0.205-0.495 0.205z"></path>
<path d="M26.645 27.345c-0.179 0-0.358-0.068-0.495-0.205l-2.689-2.689c-0.273-0.273-0.273-0.717 0-0.99s0.717-0.273 0.99 0l2.689 2.689c0.273 0.273 0.273 0.717 0 0.99-0.137 0.137-0.316 0.205-0.495 0.205z"></path>
<path d="M11.695 6.306c-0.275 0-0.536-0.163-0.647-0.432l-1.455-3.514c-0.148-0.357 0.022-0.767 0.379-0.915s0.767 0.022 0.915 0.379l1.456 3.514c0.148 0.357-0.022 0.767-0.379 0.915-0.088 0.036-0.179 0.054-0.268 0.054z"></path>
<path d="M21.761 30.609c-0.275 0-0.535-0.163-0.647-0.432l-1.455-3.514c-0.148-0.357 0.022-0.767 0.379-0.915 0.358-0.148 0.767 0.022 0.915 0.379l1.455 3.514c0.148 0.357-0.022 0.767-0.379 0.915-0.088 0.036-0.178 0.054-0.267 0.054z"></path>
<path d="M2.092 22.461c-0.275 0-0.536-0.163-0.647-0.432-0.148-0.357 0.022-0.767 0.379-0.915l3.514-1.455c0.357-0.148 0.767 0.022 0.915 0.379s-0.022 0.767-0.379 0.915l-3.514 1.455c-0.088 0.036-0.178 0.054-0.267 0.054z"></path>
<path d="M26.395 12.395c-0.275 0-0.535-0.163-0.647-0.432-0.148-0.357 0.022-0.767 0.379-0.915l3.514-1.456c0.357-0.148 0.766 0.022 0.915 0.379s-0.022 0.767-0.379 0.915l-3.513 1.456c-0.088 0.036-0.179 0.054-0.268 0.054z"></path>
<path d="M20.305 6.306c-0.089 0-0.18-0.017-0.268-0.054-0.357-0.148-0.527-0.557-0.379-0.915l1.455-3.514c0.148-0.357 0.556-0.527 0.915-0.379 0.357 0.148 0.527 0.557 0.379 0.915l-1.455 3.514c-0.112 0.27-0.372 0.433-0.647 0.433z"></path>
<path d="M10.238 30.609c-0.089 0-0.18-0.017-0.268-0.054-0.357-0.148-0.527-0.558-0.379-0.915l1.456-3.514c0.148-0.357 0.557-0.527 0.915-0.379s0.527 0.558 0.379 0.915l-1.456 3.514c-0.111 0.269-0.372 0.432-0.647 0.432z"></path>
<path d="M5.605 12.395c-0.089 0-0.18-0.017-0.268-0.054l-3.514-1.456c-0.357-0.148-0.527-0.558-0.379-0.915s0.557-0.527 0.915-0.379l3.514 1.456c0.357 0.148 0.527 0.558 0.379 0.915-0.111 0.27-0.372 0.432-0.647 0.432z"></path>
<path d="M29.908 22.461c-0.089 0-0.18-0.017-0.268-0.054l-3.514-1.455c-0.357-0.148-0.527-0.558-0.379-0.915s0.556-0.527 0.915-0.379l3.514 1.455c0.357 0.148 0.527 0.558 0.379 0.915-0.112 0.269-0.372 0.432-0.647 0.432z"></path>
</symbol>
    <symbol id="icon-film" viewBox="0 0 32 32">
      <path fill="none"   stroke-linejoin="round" stroke-linecap="round" stroke-miterlimit="4" stroke-width="2.6667" d="M26.427 2.667h-20.853c-1.605 0-2.907 1.301-2.907 2.907v20.853c0 1.605 1.301 2.907 2.907 2.907h20.853c1.605 0 2.907-1.301 2.907-2.907v-20.853c0-1.605-1.301-2.907-2.907-2.907z"></path>
      <path fill="none"   stroke-linejoin="round" stroke-linecap="round" stroke-miterlimit="4" stroke-width="2.6667" d="M9.333 2.667v26.667"></path>
      <path fill="none"   stroke-linejoin="round" stroke-linecap="round" stroke-miterlimit="4" stroke-width="2.6667" d="M22.667 2.667v26.667"></path>
      <path fill="none"   stroke-linejoin="round" stroke-linecap="round" stroke-miterlimit="4" stroke-width="2.6667" d="M2.667 16h26.667"></path>
      <path fill="none"   stroke-linejoin="round" stroke-linecap="round" stroke-miterlimit="4" stroke-width="2.6667" d="M2.667 9.333h6.667"></path>
      <path fill="none"   stroke-linejoin="round" stroke-linecap="round" stroke-miterlimit="4" stroke-width="2.6667" d="M2.667 22.667h6.667"></path>
      <path fill="none"   stroke-linejoin="round" stroke-linecap="round" stroke-miterlimit="4" stroke-width="2.6667" d="M22.667 22.667h6.667"></path>
      <path fill="none"   stroke-linejoin="round" stroke-linecap="round" stroke-miterlimit="4" stroke-width="2.6667" d="M22.667 9.333h6.667"></path>
    </symbol>
    <symbol id="icon-search" viewBox="0 0 32 32">
      <path fill="none" stroke="#fff" style="stroke: var(--color1, #fff)" stroke-linejoin="round" stroke-linecap="round" stroke-miterlimit="4" stroke-width="2.6667" d="M14.667 25.333c5.891 0 10.667-4.776 10.667-10.667s-4.776-10.667-10.667-10.667c-5.891 0-10.667 4.776-10.667 10.667s4.776 10.667 10.667 10.667z"></path>
      <path fill="none" stroke="#fff" style="stroke: var(--color1, #fff)" stroke-linejoin="round" stroke-linecap="round" stroke-miterlimit="4" stroke-width="2.6667" d="M28 28.001l-5.8-5.8"></path>
    </symbol>
    <symbol id="icon-search-filters" viewBox="0 0 32 32">
      <path fill="none" style="stroke: var(--color1)" stroke-linejoin="round" stroke-linecap="round" stroke-miterlimit="4" stroke-width="2.6667" d="M14.667 25.333c5.891 0 10.667-4.776 10.667-10.667s-4.776-10.667-10.667-10.667c-5.891 0-10.667 4.776-10.667 10.667s4.776 10.667 10.667 10.667z"></path>
      <path fill="none" style="stroke: var(--color1)" stroke-linejoin="round" stroke-linecap="round" stroke-miterlimit="4" stroke-width="2.6667" d="M28 28.001l-5.8-5.8"></path>
    </symbol>
    <symbol id="icon-heart" viewBox="0 0 34 32">
      <path d="M17.231 31.705l-2.412-2.412c-8.96-7.926-14.818-13.268-14.818-19.815 0-5.342 4.135-9.477 9.477-9.477 2.929 0 5.858 1.378 7.754 3.618 1.895-2.24 4.825-3.618 7.754-3.618 5.342 0 9.477 4.135 9.477 9.477 0 6.548-5.858 11.889-14.818 19.815l-2.412 2.412z"></path>
    </symbol>
    <symbol id="modal-close" viewBox="0 0 32 32">
            <path d="M26.667 7.303l-1.97-1.97-7.808 7.808-7.808-7.808-1.97 1.97 7.808 7.808-7.808 7.808 1.97 1.97 7.808-7.808 7.808 7.808 1.97-1.97-7.808-7.808 7.808-7.808z"></path>
        </symbol>
       <symbol id="icon-arrow-right" viewBox="0 0 32 32">
    <path d="M19.414 27.414l10-10c0.781-0.781 0.781-2.047 0-2.828l-10-10c-0.781-0.781-2.047-0.781-2.828 0s-0.781 2.047 0 2.828l6.586 6.586h-19.172c-1.105 0-2 0.895-2 2s0.895 2 2 2h19.172l-6.586 6.586c-0.39 0.39-0.586 0.902-0.586 1.414s0.195 1.024 0.586 1.414c0.781 0.781 2.047 0.781 2.828 0z"></path>
    </symbol>
    <symbol id="icon-arrow-left" viewBox="0 0 32 32">
    <path d="M12.586 27.414l-10-10c-0.781-0.781-0.781-2.047 0-2.828l10-10c0.781-0.781 2.047-0.781 2.828 0s0.781 2.047 0 2.828l-6.586 6.586h19.172c1.105 0 2 0.895 2 2s-0.895 2-2 2h-19.172l6.586 6.586c0.39 0.39 0.586 0.902 0.586 1.414s-0.195 1.024-0.586 1.414c-0.781 0.781-2.047 0.781-2.828 0z"></path>
    <symbol id="icon-equalizer" viewBox="0 0 32 32">
      <path d="M14 4v-0.5c0-0.825-0.675-1.5-1.5-1.5h-5c-0.825 0-1.5 0.675-1.5 1.5v0.5h-6v4h6v0.5c0 0.825 0.675 1.5 1.5 1.5h5c0.825 0 1.5-0.675 1.5-1.5v-0.5h18v-4h-18zM8 8v-4h4v4h-4zM26 13.5c0-0.825-0.675-1.5-1.5-1.5h-5c-0.825 0-1.5 0.675-1.5 1.5v0.5h-18v4h18v0.5c0 0.825 0.675 1.5 1.5 1.5h5c0.825 0 1.5-0.675 1.5-1.5v-0.5h6v-4h-6v-0.5zM20 18v-4h4v4h-4zM14 23.5c0-0.825-0.675-1.5-1.5-1.5h-5c-0.825 0-1.5 0.675-1.5 1.5v0.5h-6v4h6v0.5c0 0.825 0.675 1.5 1.5 1.5h5c0.825 0 1.5-0.675 1.5-1.5v-0.5h18v-4h-18v-0.5zM8 28v-4h4v4h-4z"></path>
    </symbol>
  </defs>
</svg>

